<svg width="80" height="80" viewBox="0 0 80 80" fill="none" xmlns="http://www.w3.org/2000/svg">
<path fill-rule="evenodd" clip-rule="evenodd" d="M36.0605 11.6872C38.576 10.6091 41.424 10.6091 43.9395 11.6872L61.3135 19.1335C62.5388 19.6588 63.3329 20.8638 63.333 22.197V39.7067C63.333 46.1657 60.2139 52.2269 54.958 55.9812L43.875 63.8981C41.557 65.5538 38.443 65.5539 36.125 63.8981L25.042 55.9812C19.7861 52.2269 16.667 46.1657 16.667 39.7067V22.197C16.6671 20.8638 17.4612 19.6588 18.6865 19.1335L36.0605 11.6872ZM50.625 29.2185C50.1938 28.8736 49.5638 28.9436 49.2188 29.3747L36.584 45.1687L30.707 39.2927C30.3165 38.9023 29.6835 38.9023 29.293 39.2927C28.9025 39.6832 28.9026 40.3162 29.293 40.7067L35.5645 46.9782C36.1966 47.6104 37.2384 47.5533 37.7969 46.8552L50.7812 30.6247C51.1261 30.1935 51.0562 29.5634 50.625 29.2185Z" fill="#037C3C"/>
</svg>
