<svg width="48" height="48" viewBox="0 0 48 48" fill="none" xmlns="http://www.w3.org/2000/svg">
<path d="M24 4C35.0457 4 44 12.9543 44 24C44 35.0457 35.0457 44 24 44C12.9543 44 4 35.0457 4 24C4 12.9543 12.9543 4 24 4ZM18.668 13.9463C18.3503 13.7834 17.9766 13.9989 17.959 14.3555C17.8356 16.8466 17.549 24.8267 18.8037 27C20.0586 29.1733 27.1131 32.9151 29.332 34.0537C29.6496 34.2165 30.0231 34.0009 30.041 33.6445C30.1644 31.1536 30.4509 23.1736 29.1963 21C27.9415 18.8267 20.8869 15.0849 18.668 13.9463Z" fill="#037C3C"/>
</svg>
