<svg width="100" height="100" viewBox="0 0 100 100" fill="none" xmlns="http://www.w3.org/2000/svg">
<path d="M79.1666 75V35.4166C79.1666 29.5647 79.1666 26.6388 77.7622 24.5369C77.1542 23.627 76.3729 22.8457 75.463 22.2377C73.6157 21.0034 71.1317 20.8539 66.5841 20.8358C65.6068 20.8319 65.1181 20.83 64.6935 21.0412C64.2689 21.2525 63.9737 21.6461 63.3833 22.4333L58.3333 29.1666H41.6666L36.6166 22.4333C36.0262 21.6461 35.7309 21.2525 35.3063 21.0412C34.8818 20.83 34.3931 20.8319 33.4157 20.8358C28.8681 20.8539 26.3842 21.0034 24.5368 22.2377C23.6269 22.8457 22.8457 23.627 22.2377 24.5369C20.8333 26.6388 20.8333 29.5647 20.8333 35.4166V75C20.8333 82.8567 20.8333 86.7851 23.274 89.2259C25.7148 91.6666 29.6432 91.6666 37.4999 91.6666H62.4999C70.3567 91.6666 74.285 91.6666 76.7258 89.2259C79.1666 86.7851 79.1666 82.8567 79.1666 75Z" fill="#9ACAB1"/>
<path d="M64.5833 20.8333C70.4352 20.8333 73.3611 20.8333 75.463 22.2377C76.3729 22.8457 77.1542 23.627 77.7622 24.5369C79.1666 26.6388 79.1666 29.5647 79.1666 35.4166V75C79.1666 82.8567 79.1666 86.7851 76.7258 89.2259C74.285 91.6667 70.3567 91.6667 62.4999 91.6667H37.4999C29.6432 91.6667 25.7148 91.6667 23.274 89.2259C20.8333 86.7851 20.8333 82.8567 20.8333 75V35.4166C20.8333 29.5647 20.8333 26.6388 22.2377 24.5369C22.8457 23.627 23.6269 22.8457 24.5368 22.2377C26.6387 20.8333 29.5647 20.8333 35.4166 20.8333" stroke="#0F1E4A" stroke-width="1.2"/>
<path d="M37.5 20.8333C37.5 16.231 41.231 12.5 45.8333 12.5H54.1667C58.769 12.5 62.5 16.231 62.5 20.8333C62.5 25.4357 58.769 29.1667 54.1667 29.1667H45.8333C41.231 29.1667 37.5 25.4357 37.5 20.8333Z" stroke="#0F1E4A" stroke-width="1.2"/>
<path d="M37.5 50L62.5 50" stroke="#0F1E4A" stroke-width="1.2" stroke-linecap="round"/>
<path d="M37.5 66.6667L54.1667 66.6667" stroke="#0F1E4A" stroke-width="1.2" stroke-linecap="round"/>
</svg>
