<svg width="80" height="80" viewBox="0 0 80 80" fill="none" xmlns="http://www.w3.org/2000/svg">
<path fill-rule="evenodd" clip-rule="evenodd" d="M46.3242 60.9395C46.6003 61.0399 46.907 61.0138 47.1621 60.8682L69.2519 48.2449C69.5853 48.0544 70 48.2951 70 48.679V59.7099C70 59.8893 69.9039 60.055 69.7481 60.144L46.8682 73.2181C46.7406 73.291 46.5874 73.3041 46.4492 73.2539L10.3291 60.1197C10.1315 60.0479 10 59.8601 10 59.6498V48.4434C10 48.0964 10.3448 47.8549 10.6709 47.9735L46.3242 60.9395ZM46.3242 44.2735C46.6002 44.3738 46.9071 44.3476 47.1621 44.2022L69.2519 31.5789C69.5853 31.3884 70 31.6291 70 32.013V45.2236C70 45.403 69.9039 45.5687 69.7481 45.6577L46.7734 58.7865C46.6458 58.8594 46.4926 58.8725 46.3545 58.8222L10.3291 45.7223C10.1315 45.6504 10 45.4626 10 45.2524V31.7774C10 31.4304 10.3448 31.1889 10.6709 31.3075L46.3242 44.2735ZM69.6709 23.2134C69.8685 23.2852 70 23.473 70 23.6833V28.5576C70 28.737 69.9039 28.9026 69.7481 28.9917L46.7734 42.1204C46.6458 42.1934 46.4926 42.2064 46.3545 42.1562L10.3291 29.0563C10.1315 28.9844 10 28.7966 10 28.5864V23.6232C10 23.4438 10.0961 23.2781 10.2519 23.1891L33.1318 10.115C33.2594 10.0421 33.4126 10.029 33.5508 10.0792L69.6709 23.2134Z" fill="#037C3C"/>
</svg>
