<svg width="80" height="80" viewBox="0 0 80 80" fill="none" xmlns="http://www.w3.org/2000/svg">
<path d="M70 57.333C70 60.1614 69.9998 61.5764 69.1211 62.4551C68.2424 63.3334 66.8281 63.333 64 63.333H16C13.1719 63.333 11.7576 63.3334 10.8789 62.4551C10.0002 61.5764 10 60.1614 10 57.333V27.8105L39.0283 43.9385C39.6323 44.2739 40.3677 44.274 40.9717 43.9385L70 27.8105V57.333ZM64 16.667C66.8281 16.667 68.2424 16.6666 69.1211 17.5449C69.9998 18.4236 70 19.8386 70 22.667V25.667C69.8355 25.6668 69.6687 25.7074 69.5146 25.793L40 42.1895L10.4854 25.793C10.3313 25.7074 10.1645 25.6668 10 25.667V22.667C10 19.8386 10.0002 18.4236 10.8789 17.5449C11.7576 16.6666 13.1719 16.667 16 16.667H64Z" fill="#037C3C"/>
</svg>
