<svg width="80" height="80" viewBox="0 0 80 80" fill="none" xmlns="http://www.w3.org/2000/svg">
<path d="M11.6796 21.4256L24.3982 8.70711C24.7887 8.31658 25.4218 8.31658 25.8124 8.70711L38.0824 20.9771C38.4729 21.3676 38.4729 22.0008 38.0824 22.3913L29.5456 30.9281C28.9369 31.5368 28.786 32.4667 29.171 33.2367L31.9398 38.7743C34.1653 43.2254 37.7746 46.8347 42.2257 49.0602L47.7633 51.829C48.5333 52.214 49.4632 52.0631 50.0719 51.4544L58.6087 42.9176C58.9992 42.5271 59.6324 42.5271 60.0229 42.9176L72.2929 55.1876C72.6834 55.5782 72.6834 56.2113 72.2929 56.6018L59.5744 69.3204C57.463 71.4317 54.1204 71.6693 51.7317 69.8777L31.1549 54.4451C29.4114 53.1375 27.8625 51.5886 26.5549 49.8451L11.1223 29.2683C9.33072 26.8796 9.56827 23.537 11.6796 21.4256Z" fill="#037C3C"/>
</svg>
