<svg width="48" height="48" viewBox="0 0 48 48" fill="none" xmlns="http://www.w3.org/2000/svg">
<path fill-rule="evenodd" clip-rule="evenodd" d="M24 4C31.732 4 38 10.268 38 18C38 28.5488 26.6814 34.6802 24.3984 35.8096C24.1431 35.9359 23.8569 35.9359 23.6016 35.8096C21.3186 34.6802 10 28.5488 10 18C10 10.268 16.268 4 24 4ZM24 12C20.6863 12 18 14.6863 18 18C18 21.3137 20.6863 24 24 24C27.3137 24 30 21.3137 30 18C30 14.6863 27.3137 12 24 12Z" fill="#037C3C"/>
<path d="M36.1244 33C37.3531 33.9121 38 34.9468 38 36C38 37.0532 37.3531 38.0879 36.1244 39C34.8956 39.9121 33.1283 40.6695 31 41.1962C28.8717 41.7228 26.4575 42 24 42C21.5425 42 19.1283 41.7228 17 41.1962C14.8717 40.6695 13.1044 39.9121 11.8756 39C10.6469 38.0879 10 37.0532 10 36C10 34.9468 10.6469 33.9121 11.8756 33" stroke="#037C3C" stroke-width="2" stroke-linecap="round"/>
</svg>
