<svg width="23" height="23" viewBox="0 0 23 23" fill="none" xmlns="http://www.w3.org/2000/svg">
<path d="M5.01813 6.5468L3.88211 8.69263C3.15427 10.0674 2.79035 10.7548 2.79035 11.5C2.79035 12.2451 3.15427 12.9325 3.88211 14.3073L5.01814 16.4531C5.84151 18.0084 6.2532 18.786 6.9672 19.2159C7.6812 19.6458 8.56109 19.6458 10.3209 19.6458H12.6792C14.439 19.6458 15.3189 19.6458 16.0329 19.2159C16.7469 18.786 17.1586 18.0084 17.9819 16.4531L19.118 14.3073C19.8458 12.9325 20.2097 12.2451 20.2097 11.5C20.2097 10.7548 19.8458 10.0674 19.118 8.69263L17.9819 6.5468C17.1586 4.99153 16.7469 4.21389 16.0329 3.78401C15.3189 3.35413 14.439 3.35413 12.6792 3.35413H10.3209C8.56109 3.35413 7.6812 3.35413 6.9672 3.78401C6.2532 4.21389 5.84151 4.99153 5.01813 6.5468Z" fill="#037C3C"/>
<circle cx="11.5" cy="11.5" r="2.875" fill="white"/>
</svg>
